<mxfile host="app.diagrams.net" modified="2023-11-24T12:23:15.226Z" agent="Mozilla/5.0 (Windows NT 10.0; Win64; x64) AppleWebKit/537.36 (KHTML, like Gecko) Chrome/119.0.0.0 Safari/537.36" etag="KDhZ1XBiAhcX89a76kHg" version="22.1.3" type="google">
  <diagram name="Page-1" id="929967ad-93f9-6ef4-fab6-5d389245f69c">
    <mxGraphModel grid="1" page="1" gridSize="10" guides="1" tooltips="1" connect="1" arrows="1" fold="1" pageScale="1.5" pageWidth="1169" pageHeight="826" background="none" math="0" shadow="0">
      <root>
        <mxCell id="0" style=";html=1;" />
        <mxCell id="1" style=";html=1;" parent="0" />
        <mxCell id="V9N7P93vj9uhb8wXuW9n-1" value="&lt;p style=&quot;margin: 0px ; margin-top: 4px ; margin-left: 10px ; text-align: left&quot;&gt;&lt;b&gt;[pakage] structure [SoC]&lt;/b&gt;&lt;/p&gt;" style="html=1;strokeWidth=1;shape=mxgraph.sysml.package;html=1;overflow=fill;whiteSpace=wrap;fillColor=none;gradientColor=none;fontSize=12;align=center;labelX=327.64;" vertex="1" parent="1">
          <mxGeometry x="1800" y="320" width="820" height="650" as="geometry" />
        </mxCell>
        <mxCell id="V9N7P93vj9uhb8wXuW9n-28" value="&lt;p&gt;&amp;lt;&amp;lt;block&amp;gt;&amp;gt;&lt;br&gt;&lt;b&gt;SoC&lt;/b&gt;&lt;/p&gt;" style="shape=rect;html=1;overflow=fill;whiteSpace=wrap;align=center;" vertex="1" parent="1">
          <mxGeometry x="2050" y="372.5" width="160" height="80" as="geometry" />
        </mxCell>
        <mxCell id="V9N7P93vj9uhb8wXuW9n-29" value="&lt;p&gt;&amp;lt;&amp;lt;block&amp;gt;&amp;gt;&lt;br&gt;&lt;b&gt;Microblaze&lt;/b&gt;&lt;/p&gt;" style="shape=rect;html=1;overflow=fill;whiteSpace=wrap;align=center;" vertex="1" parent="1">
          <mxGeometry x="2050" y="527.5" width="160" height="80" as="geometry" />
        </mxCell>
        <mxCell id="V9N7P93vj9uhb8wXuW9n-30" value="&lt;p&gt;&amp;lt;&amp;lt;block&amp;gt;&amp;gt;&lt;br&gt;&lt;b&gt;AXI&amp;nbsp; Interconnect&lt;/b&gt;&lt;/p&gt;" style="shape=rect;html=1;overflow=fill;whiteSpace=wrap;align=center;" vertex="1" parent="1">
          <mxGeometry x="2050" y="677.5" width="160" height="80" as="geometry" />
        </mxCell>
        <mxCell id="V9N7P93vj9uhb8wXuW9n-31" value="&lt;p&gt;&amp;lt;&amp;lt;block&amp;gt;&amp;gt;&lt;br&gt;&lt;b&gt;Local Memory&lt;/b&gt;&lt;/p&gt;" style="shape=rect;html=1;overflow=fill;whiteSpace=wrap;align=center;" vertex="1" parent="1">
          <mxGeometry x="2410" y="677.5" width="160" height="80" as="geometry" />
        </mxCell>
        <mxCell id="V9N7P93vj9uhb8wXuW9n-32" value="&lt;p&gt;&amp;lt;&amp;lt;block&amp;gt;&amp;gt;&lt;br&gt;&lt;b&gt;AXI&amp;nbsp; GPIO&lt;/b&gt;&lt;/p&gt;" style="shape=rect;html=1;overflow=fill;whiteSpace=wrap;align=center;" vertex="1" parent="1">
          <mxGeometry x="2050" y="837.5" width="160" height="80" as="geometry" />
        </mxCell>
        <mxCell id="V9N7P93vj9uhb8wXuW9n-33" value="&lt;p&gt;&amp;lt;&amp;lt;block&amp;gt;&amp;gt;&lt;br&gt;&lt;b&gt;AXI&amp;nbsp; UART 115200&lt;/b&gt;&lt;/p&gt;" style="shape=rect;html=1;overflow=fill;whiteSpace=wrap;align=center;" vertex="1" parent="1">
          <mxGeometry x="2280" y="837.5" width="160" height="80" as="geometry" />
        </mxCell>
        <mxCell id="V9N7P93vj9uhb8wXuW9n-34" value="&lt;p&gt;&amp;lt;&amp;lt;block&amp;gt;&amp;gt;&lt;br&gt;&lt;b&gt;FIR Filter Accelerator&lt;/b&gt;&lt;/p&gt;" style="shape=rect;html=1;overflow=fill;whiteSpace=wrap;align=center;" vertex="1" parent="1">
          <mxGeometry x="1820" y="837.5" width="160" height="80" as="geometry" />
        </mxCell>
        <mxCell id="V9N7P93vj9uhb8wXuW9n-43" value="" style="endArrow=diamondThin;html=1;rounded=0;exitX=0.5;exitY=0;exitDx=0;exitDy=0;entryX=0.5;entryY=1;entryDx=0;entryDy=0;endFill=1;endSize=15;" edge="1" parent="1" source="V9N7P93vj9uhb8wXuW9n-29" target="V9N7P93vj9uhb8wXuW9n-28">
          <mxGeometry width="50" height="50" relative="1" as="geometry">
            <mxPoint x="2220" y="680" as="sourcePoint" />
            <mxPoint x="2270" y="630" as="targetPoint" />
          </mxGeometry>
        </mxCell>
        <mxCell id="V9N7P93vj9uhb8wXuW9n-44" value="1" style="edgeLabel;html=1;align=center;verticalAlign=middle;resizable=0;points=[];" connectable="0" vertex="1" parent="V9N7P93vj9uhb8wXuW9n-43">
          <mxGeometry x="0.1018" y="-1" relative="1" as="geometry">
            <mxPoint x="9" y="32" as="offset" />
          </mxGeometry>
        </mxCell>
        <mxCell id="V9N7P93vj9uhb8wXuW9n-45" value="" style="endArrow=none;html=1;rounded=0;exitX=0.5;exitY=0;exitDx=0;exitDy=0;entryX=0.5;entryY=1;entryDx=0;entryDy=0;" edge="1" parent="1" source="V9N7P93vj9uhb8wXuW9n-30" target="V9N7P93vj9uhb8wXuW9n-29">
          <mxGeometry width="50" height="50" relative="1" as="geometry">
            <mxPoint x="2270" y="770" as="sourcePoint" />
            <mxPoint x="2320" y="720" as="targetPoint" />
          </mxGeometry>
        </mxCell>
        <mxCell id="V9N7P93vj9uhb8wXuW9n-52" value="1" style="edgeLabel;html=1;align=center;verticalAlign=middle;resizable=0;points=[];" connectable="0" vertex="1" parent="V9N7P93vj9uhb8wXuW9n-45">
          <mxGeometry x="-0.5046" y="2" relative="1" as="geometry">
            <mxPoint x="12" y="8" as="offset" />
          </mxGeometry>
        </mxCell>
        <mxCell id="V9N7P93vj9uhb8wXuW9n-47" value="" style="endArrow=none;html=1;rounded=0;entryX=0.5;entryY=1;entryDx=0;entryDy=0;" edge="1" parent="1" source="V9N7P93vj9uhb8wXuW9n-32" target="V9N7P93vj9uhb8wXuW9n-30">
          <mxGeometry width="50" height="50" relative="1" as="geometry">
            <mxPoint x="2010" y="680" as="sourcePoint" />
            <mxPoint x="2010" y="610" as="targetPoint" />
          </mxGeometry>
        </mxCell>
        <mxCell id="V9N7P93vj9uhb8wXuW9n-48" value="1" style="edgeLabel;html=1;align=center;verticalAlign=middle;resizable=0;points=[];" connectable="0" vertex="1" parent="V9N7P93vj9uhb8wXuW9n-47">
          <mxGeometry x="-0.4038" relative="1" as="geometry">
            <mxPoint x="10" y="14" as="offset" />
          </mxGeometry>
        </mxCell>
        <mxCell id="V9N7P93vj9uhb8wXuW9n-49" value="" style="endArrow=none;html=1;rounded=1;exitX=0.5;exitY=0;exitDx=0;exitDy=0;entryX=1;entryY=0.5;entryDx=0;entryDy=0;edgeStyle=orthogonalEdgeStyle;" edge="1" parent="1" source="V9N7P93vj9uhb8wXuW9n-31" target="V9N7P93vj9uhb8wXuW9n-29">
          <mxGeometry width="50" height="50" relative="1" as="geometry">
            <mxPoint x="2020" y="690" as="sourcePoint" />
            <mxPoint x="2020" y="620" as="targetPoint" />
          </mxGeometry>
        </mxCell>
        <mxCell id="V9N7P93vj9uhb8wXuW9n-50" value="1" style="edgeLabel;html=1;align=center;verticalAlign=middle;resizable=0;points=[];" connectable="0" vertex="1" parent="V9N7P93vj9uhb8wXuW9n-49">
          <mxGeometry x="-0.7934" y="2" relative="1" as="geometry">
            <mxPoint x="12" y="30" as="offset" />
          </mxGeometry>
        </mxCell>
        <mxCell id="V9N7P93vj9uhb8wXuW9n-53" value="" style="endArrow=none;html=1;rounded=1;exitX=0.5;exitY=0;exitDx=0;exitDy=0;entryX=0;entryY=0.5;entryDx=0;entryDy=0;edgeStyle=orthogonalEdgeStyle;" edge="1" parent="1" source="V9N7P93vj9uhb8wXuW9n-34" target="V9N7P93vj9uhb8wXuW9n-30">
          <mxGeometry width="50" height="50" relative="1" as="geometry">
            <mxPoint x="2250" y="670" as="sourcePoint" />
            <mxPoint x="2300" y="620" as="targetPoint" />
          </mxGeometry>
        </mxCell>
        <mxCell id="V9N7P93vj9uhb8wXuW9n-54" value="1" style="edgeLabel;html=1;align=center;verticalAlign=middle;resizable=0;points=[];" connectable="0" vertex="1" parent="V9N7P93vj9uhb8wXuW9n-53">
          <mxGeometry x="-0.7558" y="1" relative="1" as="geometry">
            <mxPoint x="11" y="23" as="offset" />
          </mxGeometry>
        </mxCell>
        <mxCell id="V9N7P93vj9uhb8wXuW9n-55" value="" style="endArrow=none;html=1;rounded=1;exitX=0.5;exitY=0;exitDx=0;exitDy=0;entryX=1;entryY=0.5;entryDx=0;entryDy=0;edgeStyle=orthogonalEdgeStyle;" edge="1" parent="1" source="V9N7P93vj9uhb8wXuW9n-33" target="V9N7P93vj9uhb8wXuW9n-30">
          <mxGeometry width="50" height="50" relative="1" as="geometry">
            <mxPoint x="2250" y="670" as="sourcePoint" />
            <mxPoint x="2300" y="620" as="targetPoint" />
          </mxGeometry>
        </mxCell>
        <mxCell id="V9N7P93vj9uhb8wXuW9n-56" value="1" style="edgeLabel;html=1;align=center;verticalAlign=middle;resizable=0;points=[];" connectable="0" vertex="1" parent="V9N7P93vj9uhb8wXuW9n-55">
          <mxGeometry x="-0.7697" y="1" relative="1" as="geometry">
            <mxPoint x="11" y="21" as="offset" />
          </mxGeometry>
        </mxCell>
      </root>
    </mxGraphModel>
  </diagram>
</mxfile>
